<?xml version="1.0" encoding="UTF-8"?>
<!DOCTYPE svg PUBLIC "-//W3C//DTD SVG 1.1//EN" "http://www.w3.org/Graphics/SVG/1.1/DTD/svg11.dtd">
<svg xmlns="http://www.w3.org/2000/svg" version="1.1" width="946px" height="160px" style="shape-rendering:geometricPrecision; text-rendering:geometricPrecision; image-rendering:optimizeQuality; fill-rule:evenodd; clip-rule:evenodd" xmlns:xlink="http://www.w3.org/1999/xlink">
<g><path style="opacity:1" fill="#b7917c" d="M 158.5,52.5 C 158.062,52.4346 157.728,52.6012 157.5,53C 160.25,56.7072 163.916,58.2072 168.5,57.5C 171.314,59.0697 174.314,60.4031 177.5,61.5C 177.5,63.1667 177.5,64.8333 177.5,66.5C 174.646,66.0761 171.979,65.0761 169.5,63.5C 169.167,63.6667 168.833,63.8333 168.5,64C 169.71,65.0391 170.71,66.2058 171.5,67.5C 171.062,67.4346 170.728,67.6012 170.5,68C 172.007,68.8373 172.507,70.0039 172,71.5C 170.348,70.6006 168.848,69.6006 167.5,68.5C 168.239,68.631 168.906,68.4643 169.5,68C 167.297,65.6278 164.963,63.4611 162.5,61.5C 162.719,60.325 162.386,59.325 161.5,58.5C 155.727,54.5282 150.227,50.1949 145,45.5C 140.581,38.328 135.915,31.328 131,24.5C 128.421,26.3547 125.588,27.688 122.5,28.5C 122.719,29.675 122.386,30.675 121.5,31.5C 119.765,32.057 118.098,32.3903 116.5,32.5C 116.977,33.4776 117.643,34.3109 118.5,35C 118.167,35.3333 117.833,35.6667 117.5,36C 118.793,36.49 120.127,36.6567 121.5,36.5C 121.33,37.8221 121.663,38.9887 122.5,40C 126.5,40.3333 130.5,40.6667 134.5,41C 134.167,43.3333 133.833,45.6667 133.5,48C 131.892,48.658 130.725,48.158 130,46.5C 128.951,48.1066 127.451,48.7733 125.5,48.5C 125.336,51.1873 125.503,53.854 126,56.5C 126.741,55.3595 127.575,55.3595 128.5,56.5C 129.429,57.6888 129.762,59.0222 129.5,60.5C 126.936,61.866 124.436,63.5327 122,65.5C 120.667,62.8333 118.667,60.8333 116,59.5C 115.667,60.5 115.333,61.5 115,62.5C 113.725,60.2827 112.725,57.9494 112,55.5C 111.517,56.448 111.351,57.448 111.5,58.5C 111.167,58.5 110.833,58.5 110.5,58.5C 110.218,50.9328 109.218,43.5995 107.5,36.5C 104.894,27.0673 100.727,18.4006 95,10.5C 92.6747,6.74364 89.5081,5.41031 85.5,6.5C 87.524,8.68983 89.3573,11.0232 91,13.5C 92.8839,20.9297 95.0506,28.263 97.5,35.5C 97.19,36.7383 96.69,36.7383 96,35.5C 94.5952,31.7834 93.0952,28.1168 91.5,24.5C 92.4437,28.6613 92.4437,32.9947 91.5,37.5C 93.8004,44.0912 96.4671,50.4245 99.5,56.5C 100.264,59.0177 101.264,61.351 102.5,63.5C 104.262,69.6912 107.096,75.3579 111,80.5C 111.167,80.1667 111.333,79.8333 111.5,79.5C 108.697,75.7505 109.03,75.0838 112.5,77.5C 115.083,80.9974 117.416,84.6641 119.5,88.5C 122.028,93.896 123.695,99.5627 124.5,105.5C 125.386,104.675 125.719,103.675 125.5,102.5C 129.145,104.322 132.811,106.156 136.5,108C 140.356,108.177 144.023,108.677 147.5,109.5C 143.845,108.925 140.845,109.925 138.5,112.5C 135.962,112.507 133.462,112.841 131,113.5C 128.694,112.551 126.361,111.551 124,110.5C 122.251,110.748 121.418,111.748 121.5,113.5C 120.833,113.5 120.5,113.833 120.5,114.5C 117.849,115.49 115.183,116.49 112.5,117.5C 110.829,117.332 109.496,116.665 108.5,115.5C 110.858,115.747 112.858,115.081 114.5,113.5C 115.833,113.5 116.5,112.833 116.5,111.5C 118.085,110.998 118.585,109.998 118,108.5C 114.222,106.388 110.722,103.888 107.5,101C 107.112,99.4748 107.112,97.8082 107.5,96C 105.359,95.4275 103.359,94.5942 101.5,93.5C 100.68,91.8599 99.8466,90.1932 99,88.5C 98.6174,89.056 98.1174,89.3893 97.5,89.5C 97.1274,86.4261 96.4608,83.4261 95.5,80.5C 98.9893,79.7624 102.323,78.4291 105.5,76.5C 100.693,69.924 97.5262,62.5907 96,54.5C 95.2515,52.6675 94.2515,51.0009 93,49.5C 92.3872,51.4952 92.8872,53.1619 94.5,54.5C 93.6829,56.9686 93.1829,59.6353 93,62.5C 92.8963,57.9622 91.3963,53.9622 88.5,50.5C 86.5394,49.3113 86.2061,49.6447 87.5,51.5C 85.4862,51.6085 83.8195,50.9418 82.5,49.5C 80.7354,48.5386 78.7354,48.2053 76.5,48.5C 76.5,47.1667 76.5,45.8333 76.5,44.5C 78.5,44.5 80.5,44.5 82.5,44.5C 81.6982,40.6057 80.1982,36.939 78,33.5C 78.0619,36.8408 79.2286,39.8408 81.5,42.5C 79.9547,43.4519 78.288,43.7852 76.5,43.5C 76.6495,42.448 76.4828,41.448 76,40.5C 75.8485,43.1193 75.0152,45.4527 73.5,47.5C 72.7568,46.0921 71.9234,44.7588 71,43.5C 70.6667,44.5 70.3333,45.5 70,46.5C 67.0266,42.2192 64.8599,37.5525 63.5,32.5C 62.6764,35.7848 62.1764,39.1182 62,42.5C 60.5733,36.8319 59.2399,31.1653 58,25.5C 57.5172,26.448 57.3505,27.448 57.5,28.5C 54.8938,27.8641 52.3938,27.8641 50,28.5C 48.5251,33.0633 47.6917,37.7299 47.5,42.5C 47.369,43.2389 47.5357,43.9056 48,44.5C 48.6543,43.3044 49.1543,43.3044 49.5,44.5C 47.1391,46.1299 47.1391,47.7966 49.5,49.5C 49.1391,54.9456 48.1391,60.2789 46.5,65.5C 47.3374,70.1712 49.0041,74.5045 51.5,78.5C 50.8333,78.5 50.5,78.8333 50.5,79.5C 48.2752,75.3771 46.2752,71.0437 44.5,66.5C 45.1062,64.2906 45.7728,62.124 46.5,60C 46.2716,59.6012 45.9382,59.4346 45.5,59.5C 44.1961,55.2179 43.0294,50.8845 42,46.5C 41.1088,50.3716 41.6088,54.0382 43.5,57.5C 43.3333,57.8333 43.1667,58.1667 43,58.5C 40.9812,57.6426 39.4812,56.3092 38.5,54.5C 36.3342,50.6647 36.0009,46.6647 37.5,42.5C 38.905,40.7749 39.405,38.7749 39,36.5C 37.955,37.3734 37.1217,38.3734 36.5,39.5C 35.5116,40.795 34.5116,42.1283 33.5,43.5C 32.596,42.791 32.2627,41.791 32.5,40.5C 33.3007,38.9582 33.634,37.2915 33.5,35.5C 34.2679,36.2625 34.7679,37.2625 35,38.5C 35.4828,37.552 35.6495,36.552 35.5,35.5C 36.5,35.1667 37.1667,34.5 37.5,33.5C 40.5197,27.3017 44.1863,21.4683 48.5,16C 48.2716,15.6012 47.9382,15.4346 47.5,15.5C 51.1396,12.5271 54.4729,9.19379 57.5,5.5C 59.3162,3.86342 61.3162,2.36342 63.5,1C 99.5659,-8.69613 125.733,2.80387 142,35.5C 144.667,38.8333 147.333,42.1667 150,45.5C 152.736,48.0989 155.569,50.4322 158.5,52.5 Z"/></g>
<g><path style="opacity:1" fill="#ceab8c" d="M 64.5,10.5 C 69.8053,10.9412 74.8053,12.4412 79.5,15C 81.7458,16.2568 83.0791,18.0901 83.5,20.5C 77.129,19.0442 70.7957,17.3775 64.5,15.5C 64.9767,14.5224 65.6433,13.6891 66.5,13C 66.1667,12.8333 65.8333,12.6667 65.5,12.5C 64.0124,14.2706 62.179,15.6039 60,16.5C 59.3333,15.8333 59.3333,15.1667 60,14.5C 61.6667,13.2668 63.1667,11.9335 64.5,10.5 Z"/></g>
<g><path style="opacity:1" fill="#dbbb95" d="M 59.5,9.5 C 60.3764,9.36912 61.0431,9.70245 61.5,10.5C 58.4809,14.5387 55.9809,18.8721 54,23.5C 50.6667,26.1667 47.3333,28.8333 44,31.5C 43.6848,30.0922 44.0181,28.7589 45,27.5C 48.9083,20.758 53.7416,14.758 59.5,9.5 Z"/></g>
<g><path style="opacity:1" fill="#e4dacb" d="M 57.5,5.5 C 54.4729,9.19379 51.1396,12.5271 47.5,15.5C 42.3769,18.9638 38.7102,23.6305 36.5,29.5C 35.5386,31.2646 35.2053,33.2646 35.5,35.5C 35.6495,36.552 35.4828,37.552 35,38.5C 34.7679,37.2625 34.2679,36.2625 33.5,35.5C 33.572,31.3735 34.2387,27.3735 35.5,23.5C 35.5,23.1667 35.5,22.8333 35.5,22.5C 36.9063,22.0269 37.573,21.0269 37.5,19.5C 37.8588,17.629 38.8588,16.129 40.5,15C 45.8982,11.3022 51.5648,8.13551 57.5,5.5 Z"/></g>
<g><path style="opacity:0.267" fill="#5651b9" d="M 37.5,19.5 C 37.573,21.0269 36.9063,22.0269 35.5,22.5C 35.427,20.9731 36.0937,19.9731 37.5,19.5 Z"/></g>
<g><path style="opacity:1" fill="#191498" d="M 47.5,15.5 C 47.9382,15.4346 48.2716,15.6012 48.5,16C 44.1863,21.4683 40.5197,27.3017 37.5,33.5C 36.5655,32.4324 36.2322,31.099 36.5,29.5C 38.7102,23.6305 42.3769,18.9638 47.5,15.5 Z"/></g>
<g><path style="opacity:1" fill="#b39079" d="M 162.5,61.5 C 160.712,61.2148 159.045,61.5481 157.5,62.5C 160.734,64.6866 164.067,66.6866 167.5,68.5C 168.848,69.6006 170.348,70.6006 172,71.5C 172.507,70.0039 172.007,68.8373 170.5,68C 170.728,67.6012 171.062,67.4346 171.5,67.5C 173.5,68.8333 175.5,70.1667 177.5,71.5C 177.5,73.1667 177.5,74.8333 177.5,76.5C 167.775,76.5863 158.108,76.4197 148.5,76C 151.343,77.5168 154.177,79.0168 157,80.5C 163.825,79.2767 170.658,79.2767 177.5,80.5C 177.5,86.8333 177.5,93.1667 177.5,99.5C 174.669,100.079 172.336,101.412 170.5,103.5C 170.5,103.833 170.5,104.167 170.5,104.5C 169.739,103.609 168.739,102.942 167.5,102.5C 158.814,103.851 150.147,103.684 141.5,102C 140.944,101.617 140.611,101.117 140.5,100.5C 144.204,100.724 147.871,100.89 151.5,101C 151.833,100.667 152.167,100.333 152.5,100C 149.367,100.046 146.7,99.0461 144.5,97C 150.624,97.1913 156.291,95.6913 161.5,92.5C 162.631,93.7515 163.964,94.7515 165.5,95.5C 169.392,94.1448 169.059,93.3114 164.5,93C 167.255,91.2888 169.589,89.1221 171.5,86.5C 171.333,86.1667 171.167,85.8333 171,85.5C 169.667,86.8333 168.333,88.1667 167,89.5C 166.536,88.9056 166.369,88.2389 166.5,87.5C 166.414,86.5041 166.748,85.6708 167.5,85C 160.979,84.7526 154.645,85.7526 148.5,88C 151.614,90.8543 155.281,92.021 159.5,91.5C 158.158,92.793 156.491,93.6264 154.5,94C 149.201,94.93 143.867,95.5966 138.5,96C 140.384,96.2163 142.051,96.883 143.5,98C 141.619,97.904 139.953,98.0707 138.5,98.5C 134.039,97.9678 129.706,96.9678 125.5,95.5C 124.816,89.4567 123.149,83.7901 120.5,78.5C 118.046,71.5919 115.046,64.9252 111.5,58.5C 111.351,57.448 111.517,56.448 112,55.5C 112.725,57.9494 113.725,60.2827 115,62.5C 115.333,61.5 115.667,60.5 116,59.5C 118.667,60.8333 120.667,62.8333 122,65.5C 124.436,63.5327 126.936,61.866 129.5,60.5C 129.762,59.0222 129.429,57.6888 128.5,56.5C 127.575,55.3595 126.741,55.3595 126,56.5C 125.503,53.854 125.336,51.1873 125.5,48.5C 127.451,48.7733 128.951,48.1066 130,46.5C 130.725,48.158 131.892,48.658 133.5,48C 133.833,45.6667 134.167,43.3333 134.5,41C 130.5,40.6667 126.5,40.3333 122.5,40C 121.663,38.9887 121.33,37.8221 121.5,36.5C 120.127,36.6567 118.793,36.49 117.5,36C 117.833,35.6667 118.167,35.3333 118.5,35C 117.643,34.3109 116.977,33.4776 116.5,32.5C 118.098,32.3903 119.765,32.057 121.5,31.5C 122.386,30.675 122.719,29.675 122.5,28.5C 125.588,27.688 128.421,26.3547 131,24.5C 135.915,31.328 140.581,38.328 145,45.5C 150.227,50.1949 155.727,54.5282 161.5,58.5C 162.386,59.325 162.719,60.325 162.5,61.5 Z"/></g>
<g><path style="opacity:0.765" fill="#6a5ebb" d="M 35.5,23.5 C 34.2387,27.3735 33.572,31.3735 33.5,35.5C 32.0187,31.2115 32.6854,27.2115 35.5,23.5 Z"/></g>
<g><path style="opacity:1" fill="#a6806d" d="M 82.5,49.5 C 78.6648,49.4165 74.9981,50.0832 71.5,51.5C 68.5065,47.5211 66.0065,43.1877 64,38.5C 63.8417,42.2229 64.3417,45.8896 65.5,49.5C 65.3333,49.8333 65.1667,50.1667 65,50.5C 64,49.5 63,48.5 62,47.5C 60.9656,43.346 59.6322,39.346 58,35.5C 57.5017,38.8168 57.335,42.1501 57.5,45.5C 56.8333,45.5 56.1667,45.5 55.5,45.5C 54.0403,41.5323 51.3736,40.5323 47.5,42.5C 47.6917,37.7299 48.5251,33.0633 50,28.5C 52.3938,27.8641 54.8938,27.8641 57.5,28.5C 57.3505,27.448 57.5172,26.448 58,25.5C 59.2399,31.1653 60.5733,36.8319 62,42.5C 62.1764,39.1182 62.6764,35.7848 63.5,32.5C 64.8599,37.5525 67.0266,42.2192 70,46.5C 70.3333,45.5 70.6667,44.5 71,43.5C 71.9234,44.7588 72.7568,46.0921 73.5,47.5C 75.0152,45.4527 75.8485,43.1193 76,40.5C 76.4828,41.448 76.6495,42.448 76.5,43.5C 78.288,43.7852 79.9547,43.4519 81.5,42.5C 79.2286,39.8408 78.0619,36.8408 78,33.5C 80.1982,36.939 81.6982,40.6057 82.5,44.5C 80.5,44.5 78.5,44.5 76.5,44.5C 76.5,45.8333 76.5,47.1667 76.5,48.5C 78.7354,48.2053 80.7354,48.5386 82.5,49.5 Z"/></g>
<g><path style="opacity:1" fill="#524a89" d="M 36.5,29.5 C 36.2322,31.099 36.5655,32.4324 37.5,33.5C 37.1667,34.5 36.5,35.1667 35.5,35.5C 35.2053,33.2646 35.5386,31.2646 36.5,29.5 Z"/></g>
<g><path style="opacity:1" fill="#3f2d5d" d="M 37.5,42.5 C 37.7373,41.209 37.404,40.209 36.5,39.5C 37.1217,38.3734 37.955,37.3734 39,36.5C 39.405,38.7749 38.905,40.7749 37.5,42.5 Z"/></g>
<g><path style="opacity:1" fill="#bf3a59" d="M 97.5,35.5 C 98.7035,38.9289 100.037,42.4289 101.5,46C 101.15,47.2575 100.483,47.5908 99.5,47C 98.9136,44.7202 98.0803,42.5535 97,40.5C 97.1653,45.6849 98.6653,50.5182 101.5,55C 100.944,55.3826 100.611,55.8826 100.5,56.5C 100.167,56.5 99.8333,56.5 99.5,56.5C 96.4671,50.4245 93.8004,44.0912 91.5,37.5C 92.4437,32.9947 92.4437,28.6613 91.5,24.5C 93.0952,28.1168 94.5952,31.7834 96,35.5C 96.69,36.7383 97.19,36.7383 97.5,35.5 Z"/></g>
<g><path style="opacity:0.8" fill="#705b9d" d="M 32.5,40.5 C 32.2627,41.791 32.596,42.791 33.5,43.5C 33.6716,44.4916 33.3382,45.1583 32.5,45.5C 32.0623,44.4937 31.3957,44.4937 30.5,45.5C 30.7959,43.597 31.4625,41.9303 32.5,40.5 Z"/></g>
<g><path style="opacity:1" fill="#933544" d="M 107.5,36.5 C 109.218,43.5995 110.218,50.9328 110.5,58.5C 107.674,56.7972 107.341,54.9639 109.5,53C 108.223,47.6149 107.556,42.1149 107.5,36.5 Z"/></g>
<g><path style="opacity:1" fill="#1119aa" d="M 36.5,39.5 C 37.404,40.209 37.7373,41.209 37.5,42.5C 36.0009,46.6647 36.3342,50.6647 38.5,54.5C 38.7373,55.791 38.404,56.791 37.5,57.5C 37.5086,55.6916 37.0086,54.0249 36,52.5C 35.0138,51.8288 33.8471,51.8288 32.5,52.5C 32.5,50.8333 32.5,49.1667 32.5,47.5C 32.5,46.8333 32.5,46.1667 32.5,45.5C 33.3382,45.1583 33.6716,44.4916 33.5,43.5C 34.5116,42.1283 35.5116,40.795 36.5,39.5 Z"/></g>
<g><path style="opacity:1" fill="#54453d" d="M 55.5,45.5 C 54.7095,46.4013 53.7095,47.0679 52.5,47.5C 52.44,46.9569 52.1067,46.6236 51.5,46.5C 50.8243,47.6016 50.1577,48.6016 49.5,49.5C 47.1391,47.7966 47.1391,46.1299 49.5,44.5C 49.1543,43.3044 48.6543,43.3044 48,44.5C 47.5357,43.9056 47.369,43.2389 47.5,42.5C 51.3736,40.5323 54.0403,41.5323 55.5,45.5 Z"/></g>
<g><path style="opacity:1" fill="#c82656" d="M 107.5,36.5 C 107.556,42.1149 108.223,47.6149 109.5,53C 107.341,54.9639 107.674,56.7972 110.5,58.5C 110.833,58.5 111.167,58.5 111.5,58.5C 115.046,64.9252 118.046,71.5919 120.5,78.5C 121.592,84.0372 122.926,89.5372 124.5,95C 124.333,95.5 124.167,96 124,96.5C 123.14,93.3672 121.64,90.7005 119.5,88.5C 117.416,84.6641 115.083,80.9974 112.5,77.5C 111.611,75.264 110.278,73.264 108.5,71.5C 109.167,70.8333 109.833,70.1667 110.5,69.5C 109.479,68.0986 108.479,66.7653 107.5,65.5C 107.5,63.5 106.5,62.5 104.5,62.5C 103.167,60.5 101.833,58.5 100.5,56.5C 100.611,55.8826 100.944,55.3826 101.5,55C 98.6653,50.5182 97.1653,45.6849 97,40.5C 98.0803,42.5535 98.9136,44.7202 99.5,47C 100.483,47.5908 101.15,47.2575 101.5,46C 100.037,42.4289 98.7035,38.9289 97.5,35.5C 95.0506,28.263 92.8839,20.9297 91,13.5C 89.3573,11.0232 87.524,8.68983 85.5,6.5C 89.5081,5.41031 92.6747,6.74364 95,10.5C 100.727,18.4006 104.894,27.0673 107.5,36.5 Z"/></g>
<g><path style="opacity:1" fill="#556b60" d="M 55.5,45.5 C 56.1667,45.5 56.8333,45.5 57.5,45.5C 57.5,48.8333 57.5,52.1667 57.5,55.5C 51.612,55.7422 49.9453,53.0755 52.5,47.5C 53.7095,47.0679 54.7095,46.4013 55.5,45.5 Z"/></g>
<g><path style="opacity:0.341" fill="#342d82" d="M 30.5,46.5 C 30.3367,48.8568 30.5034,51.1902 31,53.5C 31.1909,51.2922 31.6909,49.2922 32.5,47.5C 32.5,49.1667 32.5,50.8333 32.5,52.5C 34.021,56.4844 33.1877,57.1511 30,54.5C 29.1993,51.633 29.3659,48.9664 30.5,46.5 Z"/></g>
<g><path style="opacity:1" fill="#a58d7e" d="M 32.5,45.5 C 32.5,46.1667 32.5,46.8333 32.5,47.5C 31.6909,49.2922 31.1909,51.2922 31,53.5C 30.5034,51.1902 30.3367,48.8568 30.5,46.5C 30.5,46.1667 30.5,45.8333 30.5,45.5C 31.3957,44.4937 32.0623,44.4937 32.5,45.5 Z"/></g>
<g><path style="opacity:0.906" fill="#1e8fff" d="M 553.5,52.5 C 558.223,53.0071 562.889,53.8404 567.5,55C 568.531,58.2934 568.031,61.4601 566,64.5C 544.023,58.7886 533.69,67.4553 535,90.5C 535.778,99.2307 540.278,105.064 548.5,108C 554.658,108.729 560.658,108.396 566.5,107C 567.289,109.267 567.956,111.6 568.5,114C 567.008,115.885 565.008,116.885 562.5,117C 541.662,121.015 528.829,112.848 524,92.5C 521.276,69.4434 531.109,56.1101 553.5,52.5 Z"/></g>
<g><path style="opacity:0.902" fill="#1e8fff" d="M 592.5,52.5 C 596.534,52.6721 600.534,53.1721 604.5,54C 606.651,54.2649 608.318,55.2649 609.5,57C 608.791,59.6292 607.791,62.1292 606.5,64.5C 600.523,61.0611 594.523,60.8945 588.5,64C 584.5,68 584.5,72 588.5,76C 595.577,78.9513 602.077,82.7846 608,87.5C 615.874,106.08 609.707,116.08 589.5,117.5C 583.67,117.998 578.336,116.665 573.5,113.5C 574.482,110.904 575.149,108.238 575.5,105.5C 578.237,106.031 580.904,106.864 583.5,108C 587.167,108.667 590.833,108.667 594.5,108C 602.804,103.723 603.471,98.3896 596.5,92C 589.611,89.3066 583.444,85.4732 578,80.5C 571.566,65.2939 576.399,55.9606 592.5,52.5 Z"/></g>
<g><path style="opacity:0.898" fill="#b48f79" d="M 656.5,52.5 C 670.311,53.142 675.477,60.142 672,73.5C 669.642,77.3582 666.475,80.3582 662.5,82.5C 661.417,83.365 661.251,84.365 662,85.5C 665.667,89.8333 669.333,94.1667 673,98.5C 675.908,93.2013 677.408,87.5346 677.5,81.5C 680.833,81.5 684.167,81.5 687.5,81.5C 686.724,89.9947 684.057,97.828 679.5,105C 682.486,108.655 685.486,112.322 688.5,116C 684.167,116.667 679.833,116.667 675.5,116C 674.213,114.59 673.046,113.09 672,111.5C 667.432,115.968 661.932,117.968 655.5,117.5C 643.272,117.901 636.605,112.068 635.5,100C 635.952,91.9312 639.618,85.7646 646.5,81.5C 641.191,73.3002 641.191,65.1335 646.5,57C 649.564,54.6297 652.897,53.1297 656.5,52.5 Z M 655.5,60.5 C 663.459,61.0803 665.626,65.0803 662,72.5C 655.918,79.2234 652.418,77.7234 651.5,68C 651.994,64.9919 653.327,62.4919 655.5,60.5 Z M 650.5,88.5 C 652.371,88.8588 653.871,89.8588 655,91.5C 658.833,96 662.667,100.5 666.5,105C 660.443,110.698 654.276,110.864 648,105.5C 644.277,99.1726 645.11,93.506 650.5,88.5 Z"/></g>
<g><path style="opacity:0.911" fill="#1e8fff" d="M 260.5,53.5 C 267.906,53.152 275.239,53.652 282.5,55C 283.308,55.3076 283.975,55.8076 284.5,56.5C 283.215,59.0205 282.548,61.6872 282.5,64.5C 258.499,57.8912 246.999,66.8912 248,91.5C 251.592,105.221 260.426,110.721 274.5,108C 275.473,102.593 275.807,97.0934 275.5,91.5C 271.833,91.5 268.167,91.5 264.5,91.5C 264.5,88.5 264.5,85.5 264.5,82.5C 271.5,82.5 278.5,82.5 285.5,82.5C 285.82,93.415 285.487,104.248 284.5,115C 272.205,118.847 260.205,118.18 248.5,113C 236.454,101.308 233.287,87.4751 239,71.5C 243.339,61.9842 250.506,55.9842 260.5,53.5 Z"/></g>
<g><path style="opacity:0.936" fill="#1e8fff" d="M 300.5,53.5 C 308.571,53.1367 316.571,53.6367 324.5,55C 334.389,60.0151 337.555,67.8485 334,78.5C 331.833,82 329,84.8333 325.5,87C 327.917,88.6626 329.75,90.8293 331,93.5C 332.856,100.925 335.023,108.258 337.5,115.5C 333.878,116.659 330.211,116.825 326.5,116C 324.569,108.781 322.403,101.615 320,94.5C 316.215,91.0358 311.715,89.7024 306.5,90.5C 306.5,99.1667 306.5,107.833 306.5,116.5C 303.167,116.5 299.833,116.5 296.5,116.5C 296.5,95.8333 296.5,75.1667 296.5,54.5C 298.099,54.7678 299.432,54.4345 300.5,53.5 Z M 307.5,61.5 C 314.219,60.5419 319.719,62.5419 324,67.5C 324.679,79.638 318.845,84.638 306.5,82.5C 306.205,75.4122 306.538,68.4122 307.5,61.5 Z"/></g>
<g><path style="opacity:0.912" fill="#1e8fff" d="M 359.5,53.5 C 363.833,53.5 368.167,53.5 372.5,53.5C 378.424,74.2745 384.758,94.9411 391.5,115.5C 387.878,116.659 384.211,116.825 380.5,116C 378.273,110.653 376.44,105.153 375,99.5C 368.889,98.1913 362.722,98.1913 356.5,99.5C 354.626,105.12 352.959,110.787 351.5,116.5C 347.833,116.5 344.167,116.5 340.5,116.5C 346.678,95.4548 353.011,74.4548 359.5,53.5 Z M 365.5,66.5 C 368.123,74.3109 370.457,82.3109 372.5,90.5C 367.786,90.8266 363.12,90.4933 358.5,89.5C 361.046,81.8656 363.379,74.1989 365.5,66.5 Z"/></g>
<g><path style="opacity:0.902" fill="#1e8fff" d="M 403.5,53.5 C 409.842,53.3338 416.175,53.5005 422.5,54C 436.291,57.7387 441.124,66.5721 437,80.5C 434.164,86.8366 429.331,90.6699 422.5,92C 418.179,92.499 413.846,92.6657 409.5,92.5C 409.5,100.5 409.5,108.5 409.5,116.5C 405.833,116.5 402.167,116.5 398.5,116.5C 398.5,95.8333 398.5,75.1667 398.5,54.5C 400.415,54.7845 402.081,54.4511 403.5,53.5 Z M 411.5,61.5 C 427.071,61.8219 431.071,68.6552 423.5,82C 419.078,84.1036 414.412,84.9369 409.5,84.5C 408.919,76.5585 409.586,68.8919 411.5,61.5 Z"/></g>
<g><path style="opacity:0.892" fill="#1e8fff" d="M 446.5,53.5 C 450.167,53.5 453.833,53.5 457.5,53.5C 457.5,62.1667 457.5,70.8333 457.5,79.5C 465.5,79.5 473.5,79.5 481.5,79.5C 481.5,70.8333 481.5,62.1667 481.5,53.5C 485.167,53.5 488.833,53.5 492.5,53.5C 492.5,74.5 492.5,95.5 492.5,116.5C 488.833,116.5 485.167,116.5 481.5,116.5C 481.5,107.167 481.5,97.8333 481.5,88.5C 473.5,88.5 465.5,88.5 457.5,88.5C 457.5,97.8333 457.5,107.167 457.5,116.5C 453.833,116.5 450.167,116.5 446.5,116.5C 446.5,95.5 446.5,74.5 446.5,53.5 Z"/></g>
<g><path style="opacity:0.964" fill="#1e8fff" d="M 504.5,53.5 C 507.833,53.5 511.167,53.5 514.5,53.5C 514.5,74.5 514.5,95.5 514.5,116.5C 511.167,116.5 507.833,116.5 504.5,116.5C 504.5,95.5 504.5,74.5 504.5,53.5 Z"/></g>
<g><path style="opacity:0.896" fill="#fea501" d="M 733.5,53.5 C 740.906,53.152 748.239,53.652 755.5,55C 756.428,55.3879 757.095,56.0546 757.5,57C 756.521,59.4333 755.855,61.9333 755.5,64.5C 748.215,62.1576 740.882,61.9909 733.5,64C 724.458,68.2398 720.125,75.4065 720.5,85.5C 721.292,102.892 730.292,110.392 747.5,108C 748.473,102.593 748.807,97.0934 748.5,91.5C 745.167,91.5 741.833,91.5 738.5,91.5C 738.5,88.5 738.5,85.5 738.5,82.5C 745.5,82.5 752.5,82.5 759.5,82.5C 759.832,93.1874 759.499,103.854 758.5,114.5C 746.749,118.66 735.083,118.493 723.5,114C 715.307,108.788 710.807,101.288 710,91.5C 707.53,72.1916 715.364,59.5249 733.5,53.5 Z"/></g>
<g><path style="opacity:0.915" fill="#fea501" d="M 784.5,53.5 C 788.767,53.203 792.934,53.5363 797,54.5C 803.481,75.0944 809.648,95.7611 815.5,116.5C 811.833,116.5 808.167,116.5 804.5,116.5C 802.833,110.5 801.167,104.5 799.5,98.5C 793.167,98.5 786.833,98.5 780.5,98.5C 779.474,104.271 777.974,109.938 776,115.5C 772.256,116.626 768.423,116.793 764.5,116C 771.27,95.1913 777.936,74.358 784.5,53.5 Z M 789.5,65.5 C 792.228,73.5524 794.895,81.7191 797.5,90C 792.845,90.4992 788.179,90.6658 783.5,90.5C 785.656,82.2081 787.656,73.8748 789.5,65.5 Z"/></g>
<g><path style="opacity:0.911" fill="#fea501" d="M 826.5,53.5 C 830.833,53.5 835.167,53.5 839.5,53.5C 844.295,69.0543 848.795,84.7209 853,100.5C 857.739,84.7846 862.572,69.1179 867.5,53.5C 871.833,53.5 876.167,53.5 880.5,53.5C 881.958,74.488 883.291,95.488 884.5,116.5C 881.167,116.5 877.833,116.5 874.5,116.5C 873.335,100.527 872.501,84.527 872,68.5C 867.202,83.8955 862.202,99.2288 857,114.5C 855.82,115.684 854.32,116.351 852.5,116.5C 850.68,116.351 849.18,115.684 848,114.5C 843.262,100.287 838.929,85.9534 835,71.5C 833.535,86.4561 832.368,101.456 831.5,116.5C 828.102,116.82 824.768,116.487 821.5,115.5C 823.255,94.8507 824.921,74.184 826.5,53.5 Z"/></g>
<g><path style="opacity:0.903" fill="#fea501" d="M 894.5,53.5 C 905.833,53.5 917.167,53.5 928.5,53.5C 928.5,56.5 928.5,59.5 928.5,62.5C 920.833,62.5 913.167,62.5 905.5,62.5C 905.5,68.1667 905.5,73.8333 905.5,79.5C 912.833,79.5 920.167,79.5 927.5,79.5C 927.5,82.5 927.5,85.5 927.5,88.5C 920.167,88.5 912.833,88.5 905.5,88.5C 905.5,95.1667 905.5,101.833 905.5,108.5C 913.5,108.5 921.5,108.5 929.5,108.5C 929.5,111.167 929.5,113.833 929.5,116.5C 917.833,116.5 906.167,116.5 894.5,116.5C 894.5,95.5 894.5,74.5 894.5,53.5 Z"/></g>
<g><path style="opacity:1" fill="#e4cdb2" d="M 158.5,52.5 C 164.895,51.7842 170.895,52.9509 176.5,56C 177.252,56.6708 177.586,57.5041 177.5,58.5C 174.57,57.701 171.57,57.3677 168.5,57.5C 163.916,58.2072 160.25,56.7072 157.5,53C 157.728,52.6012 158.062,52.4346 158.5,52.5 Z"/></g>
<g><path style="opacity:1" fill="#e0b8b5" d="M 71.5,51.5 C 72.5676,52.4345 73.901,52.7678 75.5,52.5C 76.3764,52.3691 77.0431,52.7025 77.5,53.5C 76.6258,55.7466 76.2924,58.0799 76.5,60.5C 78.677,60.5861 80.677,61.2528 82.5,62.5C 84.5486,61.1182 86.2153,59.4516 87.5,57.5C 88.5179,60.0279 89.5179,59.8612 90.5,57C 89.6607,55.016 88.6607,53.1826 87.5,51.5C 86.2061,49.6447 86.5394,49.3113 88.5,50.5C 91.3963,53.9622 92.8963,57.9622 93,62.5C 93.1829,59.6353 93.6829,56.9686 94.5,54.5C 95.9028,61.8835 98.5695,68.7168 102.5,75C 102.18,76.6532 101.18,77.6532 99.5,78C 96.0445,78.1802 92.7111,78.8468 89.5,80C 88.5494,80.7175 88.3828,81.5509 89,82.5C 90.897,80.9837 93.0637,80.317 95.5,80.5C 96.4608,83.4261 97.1274,86.4261 97.5,89.5C 92.3566,94.7386 86.0233,97.9053 78.5,99C 79.5,99.8333 80.5,100.667 81.5,101.5C 81.1667,102.5 80.5,103.167 79.5,103.5C 77.8213,100.723 76.1546,98.0564 74.5,95.5C 73.4566,92.9438 71.7899,90.7772 69.5,89C 65.2273,87.9695 60.894,87.3028 56.5,87C 54.4436,84.3859 52.7769,81.5525 51.5,78.5C 49.0041,74.5045 47.3374,70.1712 46.5,65.5C 48.1391,60.2789 49.1391,54.9456 49.5,49.5C 50.1577,48.6016 50.8243,47.6016 51.5,46.5C 52.1067,46.6236 52.44,46.9569 52.5,47.5C 49.9453,53.0755 51.612,55.7422 57.5,55.5C 57.5,52.1667 57.5,48.8333 57.5,45.5C 57.335,42.1501 57.5017,38.8168 58,35.5C 59.6322,39.346 60.9656,43.346 62,47.5C 63,48.5 64,49.5 65,50.5C 65.1667,50.1667 65.3333,49.8333 65.5,49.5C 64.3417,45.8896 63.8417,42.2229 64,38.5C 66.0065,43.1877 68.5065,47.5211 71.5,51.5 Z"/></g>
<g><path style="opacity:1" fill="#5f7168" d="M 75.5,52.5 C 80.8998,50.6368 84.8998,52.3034 87.5,57.5C 86.2153,59.4516 84.5486,61.1182 82.5,62.5C 80.677,61.2528 78.677,60.5861 76.5,60.5C 76.2924,58.0799 76.6258,55.7466 77.5,53.5C 77.0431,52.7025 76.3764,52.3691 75.5,52.5 Z"/></g>
<g><path style="opacity:1" fill="#1e1b17" d="M 82.5,49.5 C 83.8195,50.9418 85.4862,51.6085 87.5,51.5C 88.6607,53.1826 89.6607,55.016 90.5,57C 89.5179,59.8612 88.5179,60.0279 87.5,57.5C 84.8998,52.3034 80.8998,50.6368 75.5,52.5C 73.901,52.7678 72.5676,52.4345 71.5,51.5C 74.9981,50.0832 78.6648,49.4165 82.5,49.5 Z"/></g>
<g><path style="opacity:1" fill="#896657" d="M 95.5,80.5 C 93.0637,80.317 90.897,80.9837 89,82.5C 88.3828,81.5509 88.5494,80.7175 89.5,80C 92.7111,78.8468 96.0445,78.1802 99.5,78C 101.18,77.6532 102.18,76.6532 102.5,75C 98.5695,68.7168 95.9028,61.8835 94.5,54.5C 92.8872,53.1619 92.3872,51.4952 93,49.5C 94.2515,51.0009 95.2515,52.6675 96,54.5C 97.5262,62.5907 100.693,69.924 105.5,76.5C 102.323,78.4291 98.9893,79.7624 95.5,80.5 Z"/></g>
<g><path style="opacity:1" fill="#28229a" d="M 168.5,57.5 C 171.57,57.3677 174.57,57.701 177.5,58.5C 177.5,59.5 177.5,60.5 177.5,61.5C 174.314,60.4031 171.314,59.0697 168.5,57.5 Z"/></g>
<g><path style="opacity:1" fill="#906f5d" d="M 45.5,59.5 C 44.5041,59.4142 43.6708,59.7476 43,60.5C 40.607,65.6783 38.607,71.0116 37,76.5C 36.3412,73.1119 36.5078,69.7786 37.5,66.5C 37.9382,66.5654 38.2716,66.3988 38.5,66C 37.6919,65.6924 37.0253,65.1924 36.5,64.5C 37.1667,62.8333 37.8333,61.1667 38.5,59.5C 38.0302,58.537 37.3635,58.537 36.5,59.5C 36.3284,58.5084 36.6618,57.8417 37.5,57.5C 38.404,56.791 38.7373,55.791 38.5,54.5C 39.4812,56.3092 40.9812,57.6426 43,58.5C 43.1667,58.1667 43.3333,57.8333 43.5,57.5C 41.6088,54.0382 41.1088,50.3716 42,46.5C 43.0294,50.8845 44.1961,55.2179 45.5,59.5 Z"/></g>
<g><path style="opacity:1" fill="#431417" d="M 99.5,56.5 C 99.8333,56.5 100.167,56.5 100.5,56.5C 101.833,58.5 103.167,60.5 104.5,62.5C 104.5,63.1667 104.167,63.5 103.5,63.5C 103.167,63.5 102.833,63.5 102.5,63.5C 101.264,61.351 100.264,59.0177 99.5,56.5 Z"/></g>
<g><path style="opacity:1" fill="#201a69" d="M 162.5,61.5 C 164.963,63.4611 167.297,65.6278 169.5,68C 168.906,68.4643 168.239,68.631 167.5,68.5C 164.067,66.6866 160.734,64.6866 157.5,62.5C 159.045,61.5481 160.712,61.2148 162.5,61.5 Z"/></g>
<g><path style="opacity:1" fill="#191336" d="M 35.5,60.5 C 33.1829,64.1464 30.5162,67.4797 27.5,70.5C 27.3505,69.448 27.5172,68.448 28,67.5C 30.09,64.5724 32.59,62.2391 35.5,60.5 Z"/></g>
<g><path style="opacity:1" fill="#deb6b2" d="M 104.5,62.5 C 106.5,62.5 107.5,63.5 107.5,65.5C 107.66,67.1992 107.494,68.8659 107,70.5C 105.738,68.2156 104.572,65.8823 103.5,63.5C 104.167,63.5 104.5,63.1667 104.5,62.5 Z"/></g>
<g><path style="opacity:0.796" fill="#1c23a7" d="M 177.5,66.5 C 177.5,68.1667 177.5,69.8333 177.5,71.5C 175.5,70.1667 173.5,68.8333 171.5,67.5C 170.71,66.2058 169.71,65.0391 168.5,64C 168.833,63.8333 169.167,63.6667 169.5,63.5C 171.979,65.0761 174.646,66.0761 177.5,66.5 Z"/></g>
<g><path style="opacity:0.573" fill="#48499c" d="M 27.5,70.5 C 27.6646,73.5184 27.498,76.5184 27,79.5C 26.6174,80.056 26.1174,80.3893 25.5,80.5C 26.0101,77.0172 26.6768,73.6838 27.5,70.5 Z"/></g>
<g><path style="opacity:1" fill="#663433" d="M 102.5,63.5 C 102.833,63.5 103.167,63.5 103.5,63.5C 104.572,65.8823 105.738,68.2156 107,70.5C 107.494,68.8659 107.66,67.1992 107.5,65.5C 108.479,66.7653 109.479,68.0986 110.5,69.5C 109.833,70.1667 109.167,70.8333 108.5,71.5C 110.278,73.264 111.611,75.264 112.5,77.5C 109.03,75.0838 108.697,75.7505 111.5,79.5C 111.333,79.8333 111.167,80.1667 111,80.5C 107.096,75.3579 104.262,69.6912 102.5,63.5 Z"/></g>
<g><path style="opacity:1" fill="#eadabf" d="M 45.5,59.5 C 45.9382,59.4346 46.2716,59.6012 46.5,60C 45.7728,62.124 45.1062,64.2906 44.5,66.5C 46.2752,71.0437 48.2752,75.3771 50.5,79.5C 51.7769,82.5525 53.4436,85.3859 55.5,88C 59.7727,89.0305 64.106,89.6972 68.5,90C 70.3734,91.7038 72.0401,93.5372 73.5,95.5C 73.1667,95.5 72.8333,95.5 72.5,95.5C 60.8354,92.8503 60.5021,94.1836 71.5,99.5C 73.0419,100.163 74.7086,100.83 76.5,101.5C 76.8333,102.167 77.1667,102.833 77.5,103.5C 75.604,104.466 73.604,104.799 71.5,104.5C 66.7157,104.43 62.049,103.763 57.5,102.5C 55.7798,101.692 54.1131,100.692 52.5,99.5C 48.3017,93.9312 45.635,87.5979 44.5,80.5C 43.0482,82.6415 42.0482,84.9748 41.5,87.5C 39.629,87.1412 38.129,86.1412 37,84.5C 36.6667,82.1667 36.3333,79.8333 36,77.5C 35.4867,78.5266 34.9867,79.5266 34.5,80.5C 34.5,81.1667 34.1667,81.5 33.5,81.5C 31.7971,79.1488 31.2971,76.4822 32,73.5C 33.6971,70.98 35.5305,68.6467 37.5,66.5C 36.5078,69.7786 36.3412,73.1119 37,76.5C 38.607,71.0116 40.607,65.6783 43,60.5C 43.6708,59.7476 44.5041,59.4142 45.5,59.5 Z"/></g>
<g><path style="opacity:1" fill="#e2cba4" d="M 177.5,76.5 C 177.5,77.8333 177.5,79.1667 177.5,80.5C 170.658,79.2767 163.825,79.2767 157,80.5C 154.177,79.0168 151.343,77.5168 148.5,76C 158.108,76.4197 167.775,76.5863 177.5,76.5 Z"/></g>
<g><path style="opacity:1" fill="#ebd7ba" d="M 129.5,75.5 C 129.56,74.9569 129.893,74.6236 130.5,74.5C 137.132,78.0583 144.132,80.5583 151.5,82C 148.199,84.3737 144.533,85.0404 140.5,84C 136.803,81.1579 133.137,78.3246 129.5,75.5 Z"/></g>
<g><path style="opacity:0.506" fill="#6f62b1" d="M 25.5,80.5 C 25.573,82.0269 24.9063,83.0269 23.5,83.5C 23.427,81.9731 24.0937,80.9731 25.5,80.5 Z"/></g>
<g><path style="opacity:0.263" fill="#4f48ad" d="M 23.5,83.5 C 23.573,85.0269 22.9063,86.0269 21.5,86.5C 21.427,84.9731 22.0937,83.9731 23.5,83.5 Z"/></g>
<g><path style="opacity:1" fill="#77635b" d="M 51.5,78.5 C 52.7769,81.5525 54.4436,84.3859 56.5,87C 60.894,87.3028 65.2273,87.9695 69.5,89C 71.7899,90.7772 73.4566,92.9438 74.5,95.5C 74.1667,95.5 73.8333,95.5 73.5,95.5C 72.0401,93.5372 70.3734,91.7038 68.5,90C 64.106,89.6972 59.7727,89.0305 55.5,88C 53.4436,85.3859 51.7769,82.5525 50.5,79.5C 50.5,78.8333 50.8333,78.5 51.5,78.5 Z"/></g>
<g><path style="opacity:1" fill="#e6cfaf" d="M 166.5,87.5 C 164.628,89.6037 162.295,90.937 159.5,91.5C 155.281,92.021 151.614,90.8543 148.5,88C 154.645,85.7526 160.979,84.7526 167.5,85C 166.748,85.6708 166.414,86.5041 166.5,87.5 Z"/></g>
<g><path style="opacity:0.808" fill="#6c599e" d="M 21.5,86.5 C 21.8799,88.698 21.2132,90.3646 19.5,91.5C 19.7959,89.597 20.4625,87.9303 21.5,86.5 Z"/></g>
<g><path style="opacity:1" fill="#2f36ad" d="M 52.5,99.5 C 51.469,100.249 50.3024,100.915 49,101.5C 48.0978,99.5692 46.9312,97.9025 45.5,96.5C 43.8715,93.581 42.5382,90.581 41.5,87.5C 42.0482,84.9748 43.0482,82.6415 44.5,80.5C 45.635,87.5979 48.3017,93.9312 52.5,99.5 Z"/></g>
<g><path style="opacity:1" fill="#856856" d="M 140.5,100.5 C 140.167,99.5 139.5,98.8333 138.5,98.5C 139.953,98.0707 141.619,97.904 143.5,98C 142.051,96.883 140.384,96.2163 138.5,96C 143.867,95.5966 149.201,94.93 154.5,94C 156.491,93.6264 158.158,92.793 159.5,91.5C 162.295,90.937 164.628,89.6037 166.5,87.5C 166.369,88.2389 166.536,88.9056 167,89.5C 168.333,88.1667 169.667,86.8333 171,85.5C 171.167,85.8333 171.333,86.1667 171.5,86.5C 169.589,89.1221 167.255,91.2888 164.5,93C 169.059,93.3114 169.392,94.1448 165.5,95.5C 163.964,94.7515 162.631,93.7515 161.5,92.5C 156.291,95.6913 150.624,97.1913 144.5,97C 146.7,99.0461 149.367,100.046 152.5,100C 152.167,100.333 151.833,100.667 151.5,101C 147.871,100.89 144.204,100.724 140.5,100.5 Z"/></g>
<g><path style="opacity:1" fill="#2730b4" d="M 72.5,95.5 C 76.7363,97.9731 76.403,99.3065 71.5,99.5C 60.5021,94.1836 60.8354,92.8503 72.5,95.5 Z"/></g>
<g><path style="opacity:1" fill="#932e3f" d="M 120.5,78.5 C 123.149,83.7901 124.816,89.4567 125.5,95.5C 125.629,97.2161 125.962,98.8828 126.5,100.5C 125.662,100.842 125.328,101.508 125.5,102.5C 125.719,103.675 125.386,104.675 124.5,105.5C 123.695,99.5627 122.028,93.896 119.5,88.5C 121.64,90.7005 123.14,93.3672 124,96.5C 124.167,96 124.333,95.5 124.5,95C 122.926,89.5372 121.592,84.0372 120.5,78.5 Z"/></g>
<g><path style="opacity:1" fill="#3237a7" d="M 44.5,97.5 C 46.0808,99.1417 46.7475,101.142 46.5,103.5C 45.5,103.5 44.5,103.5 43.5,103.5C 42.7878,101.072 41.7878,98.7388 40.5,96.5C 42.2395,95.1908 43.5729,95.5241 44.5,97.5 Z"/></g>
<g><path style="opacity:1" fill="#2c2a2d" d="M 101.5,93.5 C 100.833,93.5 100.5,93.8333 100.5,94.5C 94.65,99.6296 87.8167,102.963 80,104.5C 78.9701,104.836 78.4701,105.503 78.5,106.5C 78.6716,107.492 78.3382,108.158 77.5,108.5C 77.5,107.5 77.5,106.5 77.5,105.5C 75.2646,105.795 73.2646,105.461 71.5,104.5C 73.604,104.799 75.604,104.466 77.5,103.5C 77.1667,102.833 76.8333,102.167 76.5,101.5C 74.7086,100.83 73.0419,100.163 71.5,99.5C 76.403,99.3065 76.7363,97.9731 72.5,95.5C 72.8333,95.5 73.1667,95.5 73.5,95.5C 73.8333,95.5 74.1667,95.5 74.5,95.5C 76.1546,98.0564 77.8213,100.723 79.5,103.5C 80.5,103.167 81.1667,102.5 81.5,101.5C 80.5,100.667 79.5,99.8333 78.5,99C 86.0233,97.9053 92.3566,94.7386 97.5,89.5C 98.1174,89.3893 98.6174,89.056 99,88.5C 99.8466,90.1932 100.68,91.8599 101.5,93.5 Z"/></g>
<g><path style="opacity:0.369" fill="#4441a7" d="M 177.5,99.5 C 175.74,101.559 173.406,102.892 170.5,103.5C 172.336,101.412 174.669,100.079 177.5,99.5 Z"/></g>
<g><path style="opacity:1" fill="#b08f78" d="M 37.5,66.5 C 35.5305,68.6467 33.6971,70.98 32,73.5C 31.2971,76.4822 31.7971,79.1488 33.5,81.5C 33.3691,82.3764 33.7025,83.0431 34.5,83.5C 35.7759,82.3864 35.7759,81.3864 34.5,80.5C 34.9867,79.5266 35.4867,78.5266 36,77.5C 36.3333,79.8333 36.6667,82.1667 37,84.5C 38.129,86.1412 39.629,87.1412 41.5,87.5C 42.5382,90.581 43.8715,93.581 45.5,96.5C 45.5,97.1667 45.1667,97.5 44.5,97.5C 43.5729,95.5241 42.2395,95.1908 40.5,96.5C 41.7878,98.7388 42.7878,101.072 43.5,103.5C 43.811,104.478 44.4777,105.145 45.5,105.5C 47.323,104.253 49.323,103.586 51.5,103.5C 51.2865,105.144 51.6198,106.644 52.5,108C 50.0542,109.483 50.3876,110.649 53.5,111.5C 54.1835,111.137 54.8501,110.804 55.5,110.5C 58.1303,112.628 60.6303,114.961 63,117.5C 63.3826,116.944 63.8826,116.611 64.5,116.5C 64.641,120.093 65.3076,123.593 66.5,127C 66.1667,127.833 65.8333,128.667 65.5,129.5C 63.8076,127.641 62.3076,125.641 61,123.5C 60.5045,125.473 60.3379,127.473 60.5,129.5C 59.8333,126.833 59.1667,124.167 58.5,121.5C 58.0472,120.542 57.3805,119.708 56.5,119C 54.0734,117.409 51.4067,116.575 48.5,116.5C 46.3498,115.33 44.0164,114.33 41.5,113.5C 40.537,113.97 40.537,114.637 41.5,115.5C 39.9382,115.267 38.6049,114.6 37.5,113.5C 36.7345,110.33 35.7345,107.33 34.5,104.5C 33.935,99.8507 33.435,95.184 33,90.5C 31.871,88.8588 30.371,87.8588 28.5,87.5C 29.5821,85.1768 29.4154,82.8435 28,80.5C 23.0044,85.4404 21.1711,91.4404 22.5,98.5C 22.5,101.833 22.5,105.167 22.5,108.5C 21.8333,108.167 21.1667,107.833 20.5,107.5C 20.5979,105.447 19.9313,103.78 18.5,102.5C 18.185,98.6286 18.5184,94.9619 19.5,91.5C 21.2132,90.3646 21.8799,88.698 21.5,86.5C 22.9063,86.0269 23.573,85.0269 23.5,83.5C 24.9063,83.0269 25.573,82.0269 25.5,80.5C 26.1174,80.3893 26.6174,80.056 27,79.5C 27.498,76.5184 27.6646,73.5184 27.5,70.5C 30.5162,67.4797 33.1829,64.1464 35.5,60.5C 35.5,59.8333 35.8333,59.5 36.5,59.5C 37.3635,58.537 38.0302,58.537 38.5,59.5C 37.8333,61.1667 37.1667,62.8333 36.5,64.5C 37.0253,65.1924 37.6919,65.6924 38.5,66C 38.2716,66.3988 37.9382,66.5654 37.5,66.5 Z"/></g>
<g><path style="opacity:1" fill="#ecdec6" d="M 28.5,87.5 C 26.0245,90.7853 24.3579,94.452 23.5,98.5C 23.1667,98.5 22.8333,98.5 22.5,98.5C 21.1711,91.4404 23.0044,85.4404 28,80.5C 29.4154,82.8435 29.5821,85.1768 28.5,87.5 Z"/></g>
<g><path style="opacity:1" fill="#2a2564" d="M 34.5,80.5 C 35.7759,81.3864 35.7759,82.3864 34.5,83.5C 33.7025,83.0431 33.3691,82.3764 33.5,81.5C 34.1667,81.5 34.5,81.1667 34.5,80.5 Z"/></g>
<g><path style="opacity:1" fill="#7d7a88" d="M 45.5,96.5 C 46.9312,97.9025 48.0978,99.5692 49,101.5C 50.3024,100.915 51.469,100.249 52.5,99.5C 54.1131,100.692 55.7798,101.692 57.5,102.5C 55.5859,104.953 54.9192,107.619 55.5,110.5C 54.8501,110.804 54.1835,111.137 53.5,111.5C 50.3876,110.649 50.0542,109.483 52.5,108C 51.6198,106.644 51.2865,105.144 51.5,103.5C 49.323,103.586 47.323,104.253 45.5,105.5C 44.4777,105.145 43.811,104.478 43.5,103.5C 44.5,103.5 45.5,103.5 46.5,103.5C 46.7475,101.142 46.0808,99.1417 44.5,97.5C 45.1667,97.5 45.5,97.1667 45.5,96.5 Z"/></g>
<g><path style="opacity:0.776" fill="#4c4aae" d="M 18.5,102.5 C 19.9313,103.78 20.5979,105.447 20.5,107.5C 19.0687,106.22 18.4021,104.553 18.5,102.5 Z"/></g>
<g><path style="opacity:1" fill="#2b38b6" d="M 28.5,87.5 C 30.371,87.8588 31.871,88.8588 33,90.5C 33.435,95.184 33.935,99.8507 34.5,104.5C 34.4921,107.545 34.1587,110.545 33.5,113.5C 32.1667,113.5 30.8333,113.5 29.5,113.5C 26.909,112.746 25.0757,111.079 24,108.5C 23.5017,105.183 23.335,101.85 23.5,98.5C 24.3579,94.452 26.0245,90.7853 28.5,87.5 Z"/></g>
<g><path style="opacity:1" fill="#9e7c6b" d="M 100.5,94.5 C 100.5,93.8333 100.833,93.5 101.5,93.5C 103.359,94.5942 105.359,95.4275 107.5,96C 107.112,97.8082 107.112,99.4748 107.5,101C 110.722,103.888 114.222,106.388 118,108.5C 118.585,109.998 118.085,110.998 116.5,111.5C 114.589,111.426 113.422,110.426 113,108.5C 111.378,109.099 109.878,109.766 108.5,110.5C 104.871,110.482 101.871,111.816 99.5,114.5C 99.5,114.167 99.5,113.833 99.5,113.5C 99.8039,112.85 100.137,112.183 100.5,111.5C 99.0095,110.756 97.5095,110.09 96,109.5C 95.4054,110.899 95.5721,112.232 96.5,113.5C 96.1543,114.696 95.6543,114.696 95,113.5C 94.1923,111.421 94.359,109.421 95.5,107.5C 96.8689,109.124 98.5355,109.624 100.5,109C 103.128,107.374 105.461,105.374 107.5,103C 105.302,99.9772 102.969,97.1438 100.5,94.5 Z"/></g>
<g><path style="opacity:1" fill="#3b40b5" d="M 126.5,100.5 C 130.017,102.424 133.684,104.091 137.5,105.5C 142.29,106.725 147.29,107.392 152.5,107.5C 152.833,107.5 153.167,107.5 153.5,107.5C 155.214,108.738 157.214,109.405 159.5,109.5C 161.368,110.263 163.035,111.263 164.5,112.5C 164.44,113.043 164.107,113.376 163.5,113.5C 161.271,112.423 158.937,111.756 156.5,111.5C 155.432,110.566 154.099,110.232 152.5,110.5C 151.081,109.549 149.415,109.216 147.5,109.5C 144.023,108.677 140.356,108.177 136.5,108C 132.811,106.156 129.145,104.322 125.5,102.5C 125.328,101.508 125.662,100.842 126.5,100.5 Z"/></g>
<g><path style="opacity:1" fill="#999ec4" d="M 137.5,105.5 C 142.75,105.302 147.75,105.969 152.5,107.5C 147.29,107.392 142.29,106.725 137.5,105.5 Z"/></g>
<g><path style="opacity:1" fill="#dcc09d" d="M 125.5,95.5 C 129.706,96.9678 134.039,97.9678 138.5,98.5C 139.5,98.8333 140.167,99.5 140.5,100.5C 140.611,101.117 140.944,101.617 141.5,102C 150.147,103.684 158.814,103.851 167.5,102.5C 168.739,102.942 169.739,103.609 170.5,104.5C 172.481,106.303 174.648,107.97 177,109.5C 177.796,112.039 177.629,114.372 176.5,116.5C 174.5,114.833 172.5,113.167 170.5,111.5C 170.44,110.957 170.107,110.624 169.5,110.5C 168.752,115.705 167.085,116.372 164.5,112.5C 163.035,111.263 161.368,110.263 159.5,109.5C 157.898,107.926 155.898,107.259 153.5,107.5C 153.167,107.5 152.833,107.5 152.5,107.5C 147.75,105.969 142.75,105.302 137.5,105.5C 133.684,104.091 130.017,102.424 126.5,100.5C 125.962,98.8828 125.629,97.2161 125.5,95.5 Z"/></g>
<g><path style="opacity:1" fill="#7b6a8c" d="M 153.5,107.5 C 155.898,107.259 157.898,107.926 159.5,109.5C 157.214,109.405 155.214,108.738 153.5,107.5 Z"/></g>
<g><path style="opacity:0.012" fill="#3635b0" d="M 20.5,107.5 C 21.1667,107.833 21.8333,108.167 22.5,108.5C 23.1098,109.391 23.4431,110.391 23.5,111.5C 21.7376,110.738 20.7376,109.404 20.5,107.5 Z"/></g>
<g><path style="opacity:1" fill="#b0a1b6" d="M 22.5,98.5 C 22.8333,98.5 23.1667,98.5 23.5,98.5C 23.335,101.85 23.5017,105.183 24,108.5C 25.0757,111.079 26.909,112.746 29.5,113.5C 28.791,114.404 27.791,114.737 26.5,114.5C 25.1667,113.833 24.1667,112.833 23.5,111.5C 23.4431,110.391 23.1098,109.391 22.5,108.5C 22.5,105.167 22.5,101.833 22.5,98.5 Z"/></g>
<g><path style="opacity:1" fill="#323db4" d="M 57.5,102.5 C 62.049,103.763 66.7157,104.43 71.5,104.5C 73.2646,105.461 75.2646,105.795 77.5,105.5C 77.5,106.5 77.5,107.5 77.5,108.5C 76.0048,108.989 74.6715,109.655 73.5,110.5C 69.9464,111.769 66.9464,113.769 64.5,116.5C 63.8826,116.611 63.3826,116.944 63,117.5C 60.6303,114.961 58.1303,112.628 55.5,110.5C 54.9192,107.619 55.5859,104.953 57.5,102.5 Z"/></g>
<g><path style="opacity:1" fill="#443531" d="M 116.5,111.5 C 116.5,112.833 115.833,113.5 114.5,113.5C 113.089,111.461 111.089,110.461 108.5,110.5C 109.878,109.766 111.378,109.099 113,108.5C 113.422,110.426 114.589,111.426 116.5,111.5 Z"/></g>
<g><path style="opacity:1" fill="#ddf3f5" d="M 147.5,109.5 C 149.415,109.216 151.081,109.549 152.5,110.5C 151.167,112.167 149.833,113.833 148.5,115.5C 145.123,115.041 141.789,114.374 138.5,113.5C 138.5,113.167 138.5,112.833 138.5,112.5C 140.845,109.925 143.845,108.925 147.5,109.5 Z"/></g>
<g><path style="opacity:1" fill="#4e56a5" d="M 34.5,104.5 C 35.7345,107.33 36.7345,110.33 37.5,113.5C 34.1978,116.475 30.5311,116.809 26.5,114.5C 27.791,114.737 28.791,114.404 29.5,113.5C 30.8333,113.5 32.1667,113.5 33.5,113.5C 34.1587,110.545 34.4921,107.545 34.5,104.5 Z"/></g>
<g><path style="opacity:0.459" fill="#896b7e" d="M 152.5,110.5 C 154.099,110.232 155.432,110.566 156.5,111.5C 156.167,111.5 155.833,111.5 155.5,111.5C 153.114,112.373 151.114,113.873 149.5,116C 150.942,116.377 151.942,117.21 152.5,118.5C 150.847,118.34 149.514,117.674 148.5,116.5C 148.5,116.167 148.5,115.833 148.5,115.5C 149.833,113.833 151.167,112.167 152.5,110.5 Z"/></g>
<g><path style="opacity:0.941" fill="#292b2c" d="M 48.5,116.5 C 47.1667,116.5 45.8333,116.5 44.5,116.5C 43.391,116.443 42.391,116.11 41.5,115.5C 40.537,114.637 40.537,113.97 41.5,113.5C 44.0164,114.33 46.3498,115.33 48.5,116.5 Z"/></g>
<g><path style="opacity:1" fill="#6e554a" d="M 108.5,115.5 C 109.496,116.665 110.829,117.332 112.5,117.5C 115.183,116.49 117.849,115.49 120.5,114.5C 121.833,115.5 121.833,116.5 120.5,117.5C 119.015,116.065 117.682,116.232 116.5,118C 111.728,119.255 107.728,118.088 104.5,114.5C 104.667,114.167 104.833,113.833 105,113.5C 106.113,114.305 107.279,114.972 108.5,115.5 Z"/></g>
<g><path style="opacity:1" fill="#4c79f4" d="M 138.5,113.5 C 141.789,114.374 145.123,115.041 148.5,115.5C 148.5,115.833 148.5,116.167 148.5,116.5C 145.402,118.182 142.069,118.682 138.5,118C 137.199,116.384 137.199,114.884 138.5,113.5 Z"/></g>
<g><path style="opacity:1" fill="#b49282" d="M 170.5,111.5 C 169.371,113.628 169.204,115.961 170,118.5C 171.529,119.729 172.696,121.229 173.5,123C 174.793,123.49 176.127,123.657 177.5,123.5C 177.279,124.735 176.612,125.735 175.5,126.5C 176.913,130.019 176.579,133.353 174.5,136.5C 171.916,135.952 170.916,134.285 171.5,131.5C 170.325,131.719 169.325,131.386 168.5,130.5C 170.379,128.93 170.712,127.264 169.5,125.5C 167.486,125.392 165.82,126.058 164.5,127.5C 163.167,127.5 161.833,127.5 160.5,127.5C 164.816,124.231 164.482,121.565 159.5,119.5C 158.895,122.304 158.062,124.971 157,127.5C 156.725,124.588 155.891,121.921 154.5,119.5C 153.115,116.642 153.448,113.976 155.5,111.5C 155.833,111.5 156.167,111.5 156.5,111.5C 158.937,111.756 161.271,112.423 163.5,113.5C 164.107,113.376 164.44,113.043 164.5,112.5C 167.085,116.372 168.752,115.705 169.5,110.5C 170.107,110.624 170.44,110.957 170.5,111.5 Z"/></g>
<g><path style="opacity:0.925" fill="#433b76" d="M 44.5,116.5 C 45.8333,116.5 47.1667,116.5 48.5,116.5C 51.4067,116.575 54.0734,117.409 56.5,119C 57.3805,119.708 58.0472,120.542 58.5,121.5C 53.7919,119.82 49.1252,118.154 44.5,116.5 Z"/></g>
<g><path style="opacity:1" fill="#e2bdb8" d="M 108.5,110.5 C 111.089,110.461 113.089,111.461 114.5,113.5C 112.858,115.081 110.858,115.747 108.5,115.5C 107.279,114.972 106.113,114.305 105,113.5C 104.833,113.833 104.667,114.167 104.5,114.5C 107.728,118.088 111.728,119.255 116.5,118C 117.682,116.232 119.015,116.065 120.5,117.5C 124.655,124.142 127.989,131.142 130.5,138.5C 126.28,143.224 121.78,147.891 117,152.5C 115.295,154.577 114.128,156.91 113.5,159.5C 111.833,159.5 110.167,159.5 108.5,159.5C 105.011,153.861 101.511,148.195 98,142.5C 97.0051,137.522 96.1718,132.522 95.5,127.5C 95.6316,122.773 96.9649,118.44 99.5,114.5C 101.871,111.816 104.871,110.482 108.5,110.5 Z"/></g>
<g><path style="opacity:1" fill="#3643b8" d="M 170.5,111.5 C 172.5,113.167 174.5,114.833 176.5,116.5C 177.369,118.717 177.702,121.05 177.5,123.5C 176.127,123.657 174.793,123.49 173.5,123C 172.696,121.229 171.529,119.729 170,118.5C 169.204,115.961 169.371,113.628 170.5,111.5 Z"/></g>
<g><path style="opacity:1" fill="#3a44b5" d="M 138.5,112.5 C 138.5,112.833 138.5,113.167 138.5,113.5C 137.199,114.884 137.199,116.384 138.5,118C 142.069,118.682 145.402,118.182 148.5,116.5C 149.514,117.674 150.847,118.34 152.5,118.5C 153.167,118.833 153.833,119.167 154.5,119.5C 155.891,121.921 156.725,124.588 157,127.5C 158.062,124.971 158.895,122.304 159.5,119.5C 164.482,121.565 164.816,124.231 160.5,127.5C 158.245,129.38 155.578,130.38 152.5,130.5C 148.3,129.645 144.3,129.645 140.5,130.5C 139.5,129.833 138.5,129.167 137.5,128.5C 134.351,125.886 130.684,124.22 126.5,123.5C 124.952,120.234 123.285,116.901 121.5,113.5C 121.418,111.748 122.251,110.748 124,110.5C 126.361,111.551 128.694,112.551 131,113.5C 133.462,112.841 135.962,112.507 138.5,112.5 Z"/></g>
<g><path style="opacity:1" fill="#e3bfba" d="M 100.5,94.5 C 102.969,97.1438 105.302,99.9772 107.5,103C 105.461,105.374 103.128,107.374 100.5,109C 98.5355,109.624 96.8689,109.124 95.5,107.5C 94.359,109.421 94.1923,111.421 95,113.5C 95.6543,114.696 96.1543,114.696 96.5,113.5C 95.5721,112.232 95.4054,110.899 96,109.5C 97.5095,110.09 99.0095,110.756 100.5,111.5C 100.137,112.183 99.8039,112.85 99.5,113.5C 97.2542,115.649 95.7542,118.316 95,121.5C 94.6667,126.833 94.3333,132.167 94,137.5C 89.9587,141.047 85.792,144.38 81.5,147.5C 80.9886,145.805 80.3219,144.139 79.5,142.5C 74.9041,146.921 70.9041,151.754 67.5,157C 68.0944,157.464 68.7611,157.631 69.5,157.5C 68.791,158.404 67.791,158.737 66.5,158.5C 66.2143,152.741 66.5476,147.075 67.5,141.5C 68.7745,135.034 69.6079,128.368 70,121.5C 71.1113,116.059 74.1113,112.059 79,109.5C 79.7401,108.251 79.5735,107.251 78.5,106.5C 78.4701,105.503 78.9701,104.836 80,104.5C 87.8167,102.963 94.65,99.6296 100.5,94.5 Z"/></g>
<g><path style="opacity:1" fill="#a7395c" d="M 126.5,123.5 C 130.684,124.22 134.351,125.886 137.5,128.5C 134.5,127.833 131.5,127.167 128.5,126.5C 127.094,126.027 126.427,125.027 126.5,123.5 Z"/></g>
<g><path style="opacity:1" fill="#e7cac4" d="M 73.5,110.5 C 73.9382,110.435 74.2716,110.601 74.5,111C 73,112.5 71.5,114 70,115.5C 68.2872,122.42 67.1206,129.42 66.5,136.5C 65.4625,137.93 64.7959,139.597 64.5,141.5C 62.2303,138.026 60.8969,134.026 60.5,129.5C 60.3379,127.473 60.5045,125.473 61,123.5C 62.3076,125.641 63.8076,127.641 65.5,129.5C 65.8333,128.667 66.1667,127.833 66.5,127C 65.3076,123.593 64.641,120.093 64.5,116.5C 66.9464,113.769 69.9464,111.769 73.5,110.5 Z"/></g>
<g><path style="opacity:1" fill="#c27788" d="M 160.5,127.5 C 161.833,127.5 163.167,127.5 164.5,127.5C 162.38,128.899 160.38,130.565 158.5,132.5C 157.833,132.5 157.167,132.5 156.5,132.5C 154.62,132.771 153.287,132.104 152.5,130.5C 155.578,130.38 158.245,129.38 160.5,127.5 Z"/></g>
<g><path style="opacity:1" fill="#7158a6" d="M 169.5,125.5 C 169.141,127.371 168.141,128.871 166.5,130C 167.252,130.671 167.586,131.504 167.5,132.5C 164.5,132.5 161.5,132.5 158.5,132.5C 160.38,130.565 162.38,128.899 164.5,127.5C 165.82,126.058 167.486,125.392 169.5,125.5 Z"/></g>
<g><path style="opacity:1" fill="#514440" d="M 78.5,106.5 C 79.5735,107.251 79.7401,108.251 79,109.5C 74.1113,112.059 71.1113,116.059 70,121.5C 69.6079,128.368 68.7745,135.034 67.5,141.5C 67.7845,139.585 67.4511,137.919 66.5,136.5C 67.1206,129.42 68.2872,122.42 70,115.5C 71.5,114 73,112.5 74.5,111C 74.2716,110.601 73.9382,110.435 73.5,110.5C 74.6715,109.655 76.0048,108.989 77.5,108.5C 78.3382,108.158 78.6716,107.492 78.5,106.5 Z"/></g>
<g><path style="opacity:0.995" fill="#47253c" d="M 152.5,130.5 C 153.287,132.104 154.62,132.771 156.5,132.5C 156.5,133.167 156.833,133.5 157.5,133.5C 160.688,135.69 163.855,138.024 167,140.5C 167.49,141.793 167.657,143.127 167.5,144.5C 164.849,143.51 162.183,142.51 159.5,141.5C 158.833,141.667 158.167,141.833 157.5,142C 158.416,142.278 159.082,142.778 159.5,143.5C 155.729,142.237 152.063,142.404 148.5,144C 142.002,147.999 136.669,153.165 132.5,159.5C 126.167,159.5 119.833,159.5 113.5,159.5C 114.128,156.91 115.295,154.577 117,152.5C 121.78,147.891 126.28,143.224 130.5,138.5C 131.396,139.506 132.062,139.506 132.5,138.5C 136.167,136.833 138.833,134.167 140.5,130.5C 144.3,129.645 148.3,129.645 152.5,130.5 Z"/></g>
<g><path style="opacity:1" fill="#d43439" d="M 128.5,126.5 C 131.5,127.167 134.5,127.833 137.5,128.5C 138.5,129.167 139.5,129.833 140.5,130.5C 138.833,134.167 136.167,136.833 132.5,138.5C 131.743,134.317 130.41,130.317 128.5,126.5 Z"/></g>
<g><path style="opacity:1" fill="#c798b0" d="M 169.5,125.5 C 170.712,127.264 170.379,128.93 168.5,130.5C 169.325,131.386 170.325,131.719 171.5,131.5C 170.916,134.285 171.916,135.952 174.5,136.5C 174.5,136.833 174.5,137.167 174.5,137.5C 171.331,136.998 168.998,135.331 167.5,132.5C 167.586,131.504 167.252,130.671 166.5,130C 168.141,128.871 169.141,127.371 169.5,125.5 Z"/></g>
<g><path style="opacity:1" fill="#2b2021" d="M 121.5,113.5 C 123.285,116.901 124.952,120.234 126.5,123.5C 126.427,125.027 127.094,126.027 128.5,126.5C 130.41,130.317 131.743,134.317 132.5,138.5C 132.062,139.506 131.396,139.506 130.5,138.5C 127.989,131.142 124.655,124.142 120.5,117.5C 121.833,116.5 121.833,115.5 120.5,114.5C 120.5,113.833 120.833,113.5 121.5,113.5 Z"/></g>
<g><path style="opacity:1" fill="#ce3e56" d="M 157.5,133.5 C 161.021,133.83 164.021,135.33 166.5,138C 168.134,138.494 169.801,138.66 171.5,138.5C 174.306,142.839 176.306,147.506 177.5,152.5C 177.5,153.5 177.5,154.5 177.5,155.5C 173.402,152.408 170.068,148.741 167.5,144.5C 167.657,143.127 167.49,141.793 167,140.5C 163.855,138.024 160.688,135.69 157.5,133.5 Z"/></g>
<g><path style="opacity:1" fill="#bb3e61" d="M 156.5,132.5 C 157.167,132.5 157.833,132.5 158.5,132.5C 161.5,132.5 164.5,132.5 167.5,132.5C 168.998,135.331 171.331,136.998 174.5,137.5C 175.15,137.804 175.817,138.137 176.5,138.5C 177.493,143.12 177.827,147.786 177.5,152.5C 176.306,147.506 174.306,142.839 171.5,138.5C 169.801,138.66 168.134,138.494 166.5,138C 164.021,135.33 161.021,133.83 157.5,133.5C 156.833,133.5 156.5,133.167 156.5,132.5 Z"/></g>
<g><path style="opacity:0.702" fill="#383675" d="M 58.5,121.5 C 59.1667,124.167 59.8333,126.833 60.5,129.5C 60.8969,134.026 62.2303,138.026 64.5,141.5C 64.1249,143.698 63.4582,145.698 62.5,147.5C 59.5716,139.109 58.2382,130.442 58.5,121.5 Z"/></g>
<g><path style="opacity:1" fill="#262322" d="M 99.5,113.5 C 99.5,113.833 99.5,114.167 99.5,114.5C 96.9649,118.44 95.6316,122.773 95.5,127.5C 96.1718,132.522 97.0051,137.522 98,142.5C 101.511,148.195 105.011,153.861 108.5,159.5C 107.167,159.5 105.833,159.5 104.5,159.5C 104.014,156.236 102.847,153.236 101,150.5C 99.3296,150.344 97.663,151.01 96,152.5C 94.2326,151.66 92.8993,150.327 92,148.5C 91.6667,149.5 91.3333,150.5 91,151.5C 88.6189,150.25 86.6189,148.583 85,146.5C 83.9542,148.09 82.7875,149.59 81.5,151C 77.4031,153.37 73.7365,156.203 70.5,159.5C 66.1667,159.5 61.8333,159.5 57.5,159.5C 58.1084,156.673 59.1084,154.007 60.5,151.5C 62.1042,150.713 62.7709,149.38 62.5,147.5C 63.4582,145.698 64.1249,143.698 64.5,141.5C 64.7959,139.597 65.4625,137.93 66.5,136.5C 67.4511,137.919 67.7845,139.585 67.5,141.5C 66.5476,147.075 66.2143,152.741 66.5,158.5C 67.791,158.737 68.791,158.404 69.5,157.5C 73.9094,154.633 77.9094,151.299 81.5,147.5C 85.792,144.38 89.9587,141.047 94,137.5C 94.3333,132.167 94.6667,126.833 95,121.5C 95.7542,118.316 97.2542,115.649 99.5,113.5 Z"/></g>
<g><path style="opacity:1" fill="#f7eade" d="M 81.5,147.5 C 77.9094,151.299 73.9094,154.633 69.5,157.5C 68.7611,157.631 68.0944,157.464 67.5,157C 70.9041,151.754 74.9041,146.921 79.5,142.5C 80.3219,144.139 80.9886,145.805 81.5,147.5 Z"/></g>
<g><path style="opacity:0.99" fill="#333231" d="M 104.5,159.5 C 93.1667,159.5 81.8333,159.5 70.5,159.5C 73.7365,156.203 77.4031,153.37 81.5,151C 82.7875,149.59 83.9542,148.09 85,146.5C 86.6189,148.583 88.6189,150.25 91,151.5C 91.3333,150.5 91.6667,149.5 92,148.5C 92.8993,150.327 94.2326,151.66 96,152.5C 97.663,151.01 99.3296,150.344 101,150.5C 102.847,153.236 104.014,156.236 104.5,159.5 Z"/></g>
<g><path style="opacity:1" fill="#2d1012" d="M 167.5,144.5 C 170.068,148.741 173.402,152.408 177.5,155.5C 177.5,156.5 177.5,157.5 177.5,158.5C 172.755,154.447 168.422,149.947 164.5,145C 162.846,144.392 161.179,143.892 159.5,143.5C 159.082,142.778 158.416,142.278 157.5,142C 158.167,141.833 158.833,141.667 159.5,141.5C 162.183,142.51 164.849,143.51 167.5,144.5 Z"/></g>
<g><path style="opacity:0.224" fill="#3e4496" d="M 62.5,147.5 C 62.7709,149.38 62.1042,150.713 60.5,151.5C 60.6596,149.847 61.3263,148.514 62.5,147.5 Z"/></g>
<g><path style="opacity:1" fill="#df353c" d="M 159.5,143.5 C 161.179,143.892 162.846,144.392 164.5,145C 168.422,149.947 172.755,154.447 177.5,158.5C 177.5,158.833 177.5,159.167 177.5,159.5C 172.167,159.5 166.833,159.5 161.5,159.5C 160.086,157.402 160.752,156.402 163.5,156.5C 163.616,153.09 161.95,151.756 158.5,152.5C 157.655,148.647 155.321,145.981 151.5,144.5C 151.793,146.047 151.293,147.714 150,149.5C 147.456,151.002 145.29,152.836 143.5,155C 143.833,155.5 144.167,156 144.5,156.5C 147.432,153.203 151.099,151.87 155.5,152.5C 155.119,154.942 155.786,155.609 157.5,154.5C 158.322,156.139 158.989,157.805 159.5,159.5C 150.5,159.5 141.5,159.5 132.5,159.5C 136.669,153.165 142.002,147.999 148.5,144C 152.063,142.404 155.729,142.237 159.5,143.5 Z"/></g>
<g><path style="opacity:1" fill="#af3030" d="M 161.5,159.5 C 160.833,159.5 160.167,159.5 159.5,159.5C 158.989,157.805 158.322,156.139 157.5,154.5C 155.786,155.609 155.119,154.942 155.5,152.5C 151.099,151.87 147.432,153.203 144.5,156.5C 144.167,156 143.833,155.5 143.5,155C 145.29,152.836 147.456,151.002 150,149.5C 151.293,147.714 151.793,146.047 151.5,144.5C 155.321,145.981 157.655,148.647 158.5,152.5C 161.95,151.756 163.616,153.09 163.5,156.5C 160.752,156.402 160.086,157.402 161.5,159.5 Z"/></g>
</svg>
